<svg width="146" height="24" viewBox="0 0 146 24" fill="none" xmlns="http://www.w3.org/2000/svg">
<path d="M20.84 4.60999C20.3292 4.099 19.7228 3.69364 19.0554 3.41708C18.3879 3.14052 17.6725 2.99817 16.95 2.99817C16.2275 2.99817 15.5121 3.14052 14.8446 3.41708C14.1772 3.69364 13.5708 4.099 13.06 4.60999L12 5.66999L10.94 4.60999C9.9083 3.5783 8.50903 2.9987 7.05 2.9987C5.59096 2.9987 4.19169 3.5783 3.16 4.60999C2.1283 5.64169 1.54871 7.04096 1.54871 8.49999C1.54871 9.95903 2.1283 11.3583 3.16 12.39L4.22 13.45L12 21.23L19.78 13.45L20.84 12.39C21.351 11.8792 21.7563 11.2728 22.0329 10.6053C22.3095 9.93789 22.4518 9.22248 22.4518 8.49999C22.4518 7.77751 22.3095 7.0621 22.0329 6.39464C21.7563 5.72718 21.351 5.12075 20.84 4.60999V4.60999Z" stroke="white" stroke-width="2" stroke-linecap="round" stroke-linejoin="round"/>
<path d="M50.1035 16.6484C50.1035 16.7135 50.084 16.7721 50.0449 16.8242C50.0124 16.8763 49.9473 16.9186 49.8496 16.9512C49.7585 16.9837 49.6348 17.0098 49.4785 17.0293C49.3223 17.0488 49.1237 17.0586 48.8828 17.0586C48.6484 17.0586 48.4531 17.0488 48.2969 17.0293C48.1406 17.0098 48.0169 16.9837 47.9258 16.9512C47.8346 16.9186 47.7695 16.8763 47.7305 16.8242C47.6914 16.7721 47.6719 16.7135 47.6719 16.6484V6.36523H47.6523L43.9902 16.6387C43.9642 16.7233 43.9219 16.7949 43.8633 16.8535C43.8047 16.9056 43.7233 16.9479 43.6191 16.9805C43.5215 17.013 43.3945 17.0326 43.2383 17.0391C43.082 17.0521 42.8932 17.0586 42.6719 17.0586C42.4505 17.0586 42.2617 17.0488 42.1055 17.0293C41.9492 17.0163 41.819 16.9935 41.7148 16.9609C41.6172 16.9219 41.5391 16.8763 41.4805 16.8242C41.4219 16.7721 41.3828 16.7103 41.3633 16.6387L37.8281 6.36523H37.8086V16.6484C37.8086 16.7135 37.7891 16.7721 37.75 16.8242C37.7174 16.8763 37.6523 16.9186 37.5547 16.9512C37.457 16.9837 37.3301 17.0098 37.1738 17.0293C37.0241 17.0488 36.8288 17.0586 36.5879 17.0586C36.3535 17.0586 36.1582 17.0488 36.002 17.0293C35.8457 17.0098 35.7188 16.9837 35.6211 16.9512C35.5299 16.9186 35.4648 16.8763 35.4258 16.8242C35.3932 16.7721 35.377 16.7135 35.377 16.6484V5.38867C35.377 5.05664 35.4648 4.80273 35.6406 4.62695C35.8164 4.45117 36.0508 4.36328 36.3438 4.36328H38.0234C38.3229 4.36328 38.5801 4.38932 38.7949 4.44141C39.0098 4.48698 39.1953 4.56836 39.3516 4.68555C39.5078 4.79622 39.638 4.94596 39.7422 5.13477C39.8464 5.31706 39.9375 5.54492 40.0156 5.81836L42.75 13.3477H42.7891L45.6211 5.83789C45.7057 5.56445 45.7969 5.33333 45.8945 5.14453C45.9987 4.95573 46.1159 4.80273 46.2461 4.68555C46.3828 4.56836 46.5423 4.48698 46.7246 4.44141C46.9069 4.38932 47.1185 4.36328 47.3594 4.36328H49.0879C49.2637 4.36328 49.4134 4.38607 49.5371 4.43164C49.6673 4.47721 49.7715 4.54557 49.8496 4.63672C49.9342 4.72135 49.9961 4.82878 50.0352 4.95898C50.0807 5.08268 50.1035 5.22591 50.1035 5.38867V16.6484ZM61.5195 12.2246C61.5195 12.9668 61.4219 13.6439 61.2266 14.2559C61.0312 14.8678 60.735 15.3952 60.3379 15.8379C59.9408 16.2806 59.4427 16.6224 58.8438 16.8633C58.2448 17.1042 57.5449 17.2246 56.7441 17.2246C55.9694 17.2246 55.2956 17.1172 54.7227 16.9023C54.1497 16.6875 53.6745 16.375 53.2969 15.9648C52.9193 15.5547 52.6393 15.0501 52.457 14.4512C52.2747 13.8522 52.1836 13.1686 52.1836 12.4004C52.1836 11.6582 52.2812 10.9811 52.4766 10.3691C52.6784 9.75065 52.9779 9.22331 53.375 8.78711C53.7721 8.3444 54.2669 8.0026 54.8594 7.76172C55.4583 7.52083 56.1582 7.40039 56.959 7.40039C57.7402 7.40039 58.4173 7.50781 58.9902 7.72266C59.5632 7.93099 60.0352 8.24023 60.4062 8.65039C60.7839 9.06055 61.0638 9.5651 61.2461 10.1641C61.4284 10.763 61.5195 11.4499 61.5195 12.2246ZM58.9902 12.3223C58.9902 11.8926 58.9544 11.4987 58.8828 11.1406C58.8177 10.776 58.7038 10.4603 58.541 10.1934C58.3783 9.92643 58.1602 9.7181 57.8867 9.56836C57.6198 9.41862 57.2812 9.34375 56.8711 9.34375C56.5065 9.34375 56.1875 9.41211 55.9141 9.54883C55.6406 9.67904 55.416 9.87435 55.2402 10.1348C55.0645 10.3887 54.931 10.6979 54.8398 11.0625C54.7552 11.4206 54.7129 11.8307 54.7129 12.293C54.7129 12.7227 54.7487 13.1198 54.8203 13.4844C54.8919 13.8424 55.0059 14.1549 55.1621 14.4219C55.3249 14.6888 55.543 14.8971 55.8164 15.0469C56.0898 15.1901 56.4284 15.2617 56.832 15.2617C57.2031 15.2617 57.5254 15.1966 57.7988 15.0664C58.0723 14.9297 58.2969 14.7344 58.4727 14.4805C58.6484 14.2266 58.7786 13.9206 58.8633 13.5625C58.9479 13.1979 58.9902 12.7845 58.9902 12.3223ZM69.6055 14.207C69.6055 14.7018 69.5111 15.138 69.3223 15.5156C69.14 15.8932 68.8796 16.209 68.541 16.4629C68.2025 16.7168 67.8021 16.9056 67.3398 17.0293C66.8776 17.1595 66.3763 17.2246 65.8359 17.2246C65.5104 17.2246 65.1979 17.1986 64.8984 17.1465C64.6055 17.1009 64.3418 17.0423 64.1074 16.9707C63.873 16.8926 63.6777 16.8145 63.5215 16.7363C63.3652 16.6582 63.2513 16.5866 63.1797 16.5215C63.1081 16.4499 63.0527 16.3424 63.0137 16.1992C62.9746 16.0495 62.9551 15.8314 62.9551 15.5449C62.9551 15.3561 62.9616 15.2064 62.9746 15.0957C62.9876 14.9785 63.0072 14.8874 63.0332 14.8223C63.0592 14.7507 63.0918 14.7051 63.1309 14.6855C63.1699 14.6595 63.2188 14.6465 63.2773 14.6465C63.349 14.6465 63.4531 14.6888 63.5898 14.7734C63.7331 14.8516 63.9089 14.9395 64.1172 15.0371C64.3255 15.1348 64.5664 15.2259 64.8398 15.3105C65.1198 15.3952 65.4355 15.4375 65.7871 15.4375C66.0085 15.4375 66.2038 15.4147 66.373 15.3691C66.5488 15.3236 66.6986 15.2585 66.8223 15.1738C66.9525 15.0892 67.0501 14.9818 67.1152 14.8516C67.1803 14.7214 67.2129 14.5716 67.2129 14.4023C67.2129 14.207 67.151 14.041 67.0273 13.9043C66.9102 13.7611 66.7507 13.6374 66.5488 13.5332C66.3535 13.429 66.1289 13.3314 65.875 13.2402C65.6276 13.1491 65.3704 13.0482 65.1035 12.9375C64.8431 12.8268 64.5859 12.6999 64.332 12.5566C64.0846 12.4134 63.86 12.2376 63.6582 12.0293C63.4629 11.821 63.3034 11.5703 63.1797 11.2773C63.0625 10.9844 63.0039 10.6328 63.0039 10.2227C63.0039 9.80599 63.0853 9.42513 63.248 9.08008C63.4108 8.72852 63.6452 8.42904 63.9512 8.18164C64.2572 7.93424 64.6283 7.74219 65.0645 7.60547C65.5072 7.46875 66.002 7.40039 66.5488 7.40039C66.8223 7.40039 67.0859 7.41992 67.3398 7.45898C67.6003 7.49805 67.8346 7.54688 68.043 7.60547C68.2513 7.66406 68.4271 7.72917 68.5703 7.80078C68.7135 7.86589 68.8145 7.92448 68.873 7.97656C68.9382 8.02214 68.9837 8.07096 69.0098 8.12305C69.0358 8.16862 69.0553 8.22721 69.0684 8.29883C69.0814 8.36393 69.0911 8.44857 69.0977 8.55273C69.1107 8.65039 69.1172 8.77409 69.1172 8.92383C69.1172 9.09961 69.1107 9.24284 69.0977 9.35352C69.0911 9.46419 69.0749 9.55208 69.0488 9.61719C69.0293 9.68229 69 9.72786 68.9609 9.75391C68.9219 9.77344 68.8763 9.7832 68.8242 9.7832C68.7656 9.7832 68.6745 9.75065 68.5508 9.68555C68.4271 9.61393 68.2708 9.53906 68.082 9.46094C67.8997 9.38281 67.6849 9.3112 67.4375 9.24609C67.1966 9.17448 66.9199 9.13867 66.6074 9.13867C66.3861 9.13867 66.194 9.16146 66.0312 9.20703C65.8685 9.2526 65.735 9.31771 65.6309 9.40234C65.5267 9.48698 65.4486 9.58789 65.3965 9.70508C65.3444 9.81576 65.3184 9.9362 65.3184 10.0664C65.3184 10.2682 65.3802 10.4375 65.5039 10.5742C65.6276 10.7109 65.7904 10.8314 65.9922 10.9355C66.194 11.0397 66.4219 11.1374 66.6758 11.2285C66.9362 11.3197 67.1966 11.4206 67.457 11.5312C67.724 11.6354 67.9844 11.7591 68.2383 11.9023C68.4987 12.0456 68.7298 12.2214 68.9316 12.4297C69.1335 12.638 69.2962 12.8887 69.4199 13.1816C69.5436 13.4681 69.6055 13.8099 69.6055 14.207ZM76.3828 15.8086C76.3828 16.0951 76.3633 16.3164 76.3242 16.4727C76.2917 16.6224 76.2461 16.7298 76.1875 16.7949C76.1289 16.8535 76.041 16.9089 75.9238 16.9609C75.8132 17.0065 75.6797 17.0456 75.5234 17.0781C75.3737 17.1172 75.2077 17.1465 75.0254 17.166C74.8496 17.1855 74.6706 17.1953 74.4883 17.1953C74 17.1953 73.5768 17.1335 73.2188 17.0098C72.8607 16.8861 72.5645 16.6973 72.3301 16.4434C72.0957 16.1829 71.9232 15.8574 71.8125 15.4668C71.7018 15.0762 71.6465 14.6139 71.6465 14.0801V9.61719H70.6016C70.4779 9.61719 70.3835 9.54232 70.3184 9.39258C70.2533 9.23633 70.2207 8.97917 70.2207 8.62109C70.2207 8.43229 70.2272 8.27279 70.2402 8.14258C70.2598 8.01237 70.2858 7.91146 70.3184 7.83984C70.3509 7.76172 70.39 7.70638 70.4355 7.67383C70.4876 7.64128 70.5462 7.625 70.6113 7.625H71.6465V5.68164C71.6465 5.61654 71.6628 5.55794 71.6953 5.50586C71.7344 5.45378 71.7995 5.41146 71.8906 5.37891C71.9883 5.33984 72.1152 5.3138 72.2715 5.30078C72.4342 5.28125 72.6328 5.27148 72.8672 5.27148C73.1081 5.27148 73.3066 5.28125 73.4629 5.30078C73.6257 5.3138 73.7526 5.33984 73.8438 5.37891C73.9349 5.41146 74 5.45378 74.0391 5.50586C74.0781 5.55794 74.0977 5.61654 74.0977 5.68164V7.625H75.9922C76.0573 7.625 76.1126 7.64128 76.1582 7.67383C76.2103 7.70638 76.2526 7.76172 76.2852 7.83984C76.3177 7.91146 76.3405 8.01237 76.3535 8.14258C76.373 8.27279 76.3828 8.43229 76.3828 8.62109C76.3828 8.97917 76.3503 9.23633 76.2852 9.39258C76.2201 9.54232 76.1257 9.61719 76.002 9.61719H74.0977V13.709C74.0977 14.1842 74.1725 14.5423 74.3223 14.7832C74.472 15.0176 74.7389 15.1348 75.123 15.1348C75.2533 15.1348 75.3704 15.125 75.4746 15.1055C75.5788 15.0794 75.6699 15.0534 75.748 15.0273C75.8327 14.9948 75.901 14.9688 75.9531 14.9492C76.0117 14.9232 76.0638 14.9102 76.1094 14.9102C76.1484 14.9102 76.1842 14.9232 76.2168 14.9492C76.2559 14.9688 76.2852 15.0143 76.3047 15.0859C76.3242 15.151 76.3405 15.2422 76.3535 15.3594C76.373 15.4766 76.3828 15.6263 76.3828 15.8086ZM91.4902 8.20117C91.4902 8.91081 91.3796 9.53906 91.1582 10.0859C90.9368 10.6328 90.6146 11.0951 90.1914 11.4727C89.7682 11.8438 89.2474 12.127 88.6289 12.3223C88.0169 12.5176 87.2943 12.6152 86.4609 12.6152H85.4062V16.6484C85.4062 16.7135 85.3835 16.7721 85.3379 16.8242C85.2988 16.8763 85.2305 16.9186 85.1328 16.9512C85.0352 16.9837 84.9049 17.0098 84.7422 17.0293C84.5794 17.0488 84.3711 17.0586 84.1172 17.0586C83.8698 17.0586 83.6615 17.0488 83.4922 17.0293C83.3294 17.0098 83.1992 16.9837 83.1016 16.9512C83.0039 16.9186 82.9355 16.8763 82.8965 16.8242C82.8574 16.7721 82.8379 16.7135 82.8379 16.6484V5.28125C82.8379 4.97526 82.916 4.7474 83.0723 4.59766C83.235 4.44141 83.4466 4.36328 83.707 4.36328H86.6855C86.985 4.36328 87.2682 4.3763 87.5352 4.40234C87.8086 4.42188 88.1341 4.4707 88.5117 4.54883C88.8893 4.62044 89.2702 4.75716 89.6543 4.95898C90.0449 5.16081 90.377 5.41797 90.6504 5.73047C90.9238 6.03646 91.1322 6.39779 91.2754 6.81445C91.4186 7.22461 91.4902 7.68685 91.4902 8.20117ZM88.8047 8.38672C88.8047 7.94401 88.7266 7.57943 88.5703 7.29297C88.4141 7.00651 88.222 6.79492 87.9941 6.6582C87.7663 6.52148 87.5254 6.43685 87.2715 6.4043C87.0241 6.36523 86.7669 6.3457 86.5 6.3457H85.4062V10.6328H86.5586C86.9688 10.6328 87.3105 10.5775 87.584 10.4668C87.8639 10.3561 88.0918 10.2031 88.2676 10.0078C88.4434 9.80599 88.5768 9.56836 88.668 9.29492C88.7591 9.01497 88.8047 8.71224 88.8047 8.38672ZM101.812 12.2246C101.812 12.9668 101.715 13.6439 101.52 14.2559C101.324 14.8678 101.028 15.3952 100.631 15.8379C100.234 16.2806 99.7357 16.6224 99.1367 16.8633C98.5378 17.1042 97.8379 17.2246 97.0371 17.2246C96.2624 17.2246 95.5885 17.1172 95.0156 16.9023C94.4427 16.6875 93.9674 16.375 93.5898 15.9648C93.2122 15.5547 92.9323 15.0501 92.75 14.4512C92.5677 13.8522 92.4766 13.1686 92.4766 12.4004C92.4766 11.6582 92.5742 10.9811 92.7695 10.3691C92.9714 9.75065 93.2708 9.22331 93.668 8.78711C94.0651 8.3444 94.5599 8.0026 95.1523 7.76172C95.7513 7.52083 96.4512 7.40039 97.252 7.40039C98.0332 7.40039 98.7103 7.50781 99.2832 7.72266C99.8561 7.93099 100.328 8.24023 100.699 8.65039C101.077 9.06055 101.357 9.5651 101.539 10.1641C101.721 10.763 101.812 11.4499 101.812 12.2246ZM99.2832 12.3223C99.2832 11.8926 99.2474 11.4987 99.1758 11.1406C99.1107 10.776 98.9967 10.4603 98.834 10.1934C98.6712 9.92643 98.4531 9.7181 98.1797 9.56836C97.9128 9.41862 97.5742 9.34375 97.1641 9.34375C96.7995 9.34375 96.4805 9.41211 96.207 9.54883C95.9336 9.67904 95.709 9.87435 95.5332 10.1348C95.3574 10.3887 95.224 10.6979 95.1328 11.0625C95.0482 11.4206 95.0059 11.8307 95.0059 12.293C95.0059 12.7227 95.0417 13.1198 95.1133 13.4844C95.1849 13.8424 95.2988 14.1549 95.4551 14.4219C95.6178 14.6888 95.8359 14.8971 96.1094 15.0469C96.3828 15.1901 96.7214 15.2617 97.125 15.2617C97.4961 15.2617 97.8184 15.1966 98.0918 15.0664C98.3652 14.9297 98.5898 14.7344 98.7656 14.4805C98.9414 14.2266 99.0716 13.9206 99.1562 13.5625C99.2409 13.1979 99.2832 12.7845 99.2832 12.3223ZM112.535 12.1855C112.535 12.9603 112.451 13.6602 112.281 14.2852C112.118 14.9036 111.878 15.431 111.559 15.8672C111.24 16.3034 110.842 16.6387 110.367 16.873C109.892 17.1074 109.348 17.2246 108.736 17.2246C108.482 17.2246 108.248 17.1986 108.033 17.1465C107.825 17.1009 107.62 17.0293 107.418 16.9316C107.223 16.8275 107.027 16.7005 106.832 16.5508C106.637 16.401 106.435 16.2253 106.227 16.0234V20.125C106.227 20.1901 106.207 20.2487 106.168 20.3008C106.129 20.3529 106.061 20.3952 105.963 20.4277C105.872 20.4668 105.748 20.4961 105.592 20.5156C105.436 20.5352 105.237 20.5449 104.996 20.5449C104.755 20.5449 104.557 20.5352 104.4 20.5156C104.244 20.4961 104.117 20.4668 104.02 20.4277C103.928 20.3952 103.863 20.3529 103.824 20.3008C103.785 20.2487 103.766 20.1901 103.766 20.125V7.95703C103.766 7.89193 103.782 7.83659 103.814 7.79102C103.847 7.73893 103.902 7.69661 103.98 7.66406C104.065 7.63151 104.173 7.60872 104.303 7.5957C104.439 7.57617 104.609 7.56641 104.811 7.56641C105.006 7.56641 105.169 7.57617 105.299 7.5957C105.436 7.60872 105.543 7.63151 105.621 7.66406C105.706 7.69661 105.764 7.73893 105.797 7.79102C105.829 7.83659 105.846 7.89193 105.846 7.95703V8.98242C106.1 8.72201 106.347 8.49414 106.588 8.29883C106.835 8.09701 107.086 7.93099 107.34 7.80078C107.594 7.66406 107.854 7.56315 108.121 7.49805C108.395 7.43294 108.684 7.40039 108.99 7.40039C109.628 7.40039 110.172 7.52734 110.621 7.78125C111.07 8.02865 111.435 8.37044 111.715 8.80664C112.001 9.24284 112.21 9.75065 112.34 10.3301C112.47 10.9095 112.535 11.528 112.535 12.1855ZM109.977 12.3613C109.977 11.9902 109.947 11.6354 109.889 11.2969C109.837 10.9518 109.742 10.6458 109.605 10.3789C109.475 10.112 109.299 9.90039 109.078 9.74414C108.863 9.58138 108.593 9.5 108.268 9.5C108.105 9.5 107.942 9.52604 107.779 9.57812C107.623 9.6237 107.46 9.70182 107.291 9.8125C107.128 9.92318 106.959 10.0664 106.783 10.2422C106.607 10.418 106.422 10.6361 106.227 10.8965V13.7676C106.572 14.2038 106.9 14.5423 107.213 14.7832C107.525 15.0176 107.851 15.1348 108.189 15.1348C108.508 15.1348 108.779 15.0534 109 14.8906C109.228 14.7279 109.413 14.5163 109.557 14.2559C109.7 13.9889 109.804 13.6895 109.869 13.3574C109.941 13.0254 109.977 12.6934 109.977 12.3613ZM122.77 16.668C122.77 16.7331 122.753 16.7917 122.721 16.8438C122.688 16.8893 122.63 16.9284 122.545 16.9609C122.467 16.9935 122.359 17.0163 122.223 17.0293C122.092 17.0488 121.926 17.0586 121.725 17.0586C121.51 17.0586 121.334 17.0488 121.197 17.0293C121.067 17.0163 120.963 16.9935 120.885 16.9609C120.807 16.9284 120.751 16.8893 120.719 16.8438C120.686 16.7917 120.67 16.7331 120.67 16.668V15.6621C120.188 16.1829 119.697 16.5736 119.195 16.834C118.701 17.0944 118.186 17.2246 117.652 17.2246C117.053 17.2246 116.549 17.127 116.139 16.9316C115.735 16.7363 115.406 16.4694 115.152 16.1309C114.905 15.7923 114.726 15.4017 114.615 14.959C114.511 14.5098 114.459 13.9531 114.459 13.2891V7.95703C114.459 7.89193 114.475 7.83659 114.508 7.79102C114.547 7.73893 114.612 7.69661 114.703 7.66406C114.801 7.63151 114.928 7.60872 115.084 7.5957C115.247 7.57617 115.445 7.56641 115.68 7.56641C115.921 7.56641 116.119 7.57617 116.275 7.5957C116.432 7.60872 116.555 7.63151 116.646 7.66406C116.744 7.69661 116.812 7.73893 116.852 7.79102C116.891 7.83659 116.91 7.89193 116.91 7.95703V12.8789C116.91 13.3346 116.939 13.6829 116.998 13.9238C117.057 14.1647 117.145 14.373 117.262 14.5488C117.385 14.7181 117.538 14.8516 117.721 14.9492C117.91 15.0404 118.128 15.0859 118.375 15.0859C118.688 15.0859 119 14.972 119.312 14.7441C119.632 14.5163 119.97 14.1842 120.328 13.748V7.95703C120.328 7.89193 120.344 7.83659 120.377 7.79102C120.416 7.73893 120.481 7.69661 120.572 7.66406C120.67 7.63151 120.797 7.60872 120.953 7.5957C121.109 7.57617 121.308 7.56641 121.549 7.56641C121.79 7.56641 121.988 7.57617 122.145 7.5957C122.301 7.60872 122.424 7.63151 122.516 7.66406C122.607 7.69661 122.672 7.73893 122.711 7.79102C122.75 7.83659 122.77 7.89193 122.77 7.95703V16.668ZM127.711 16.668C127.711 16.7331 127.691 16.7917 127.652 16.8438C127.613 16.8893 127.545 16.9284 127.447 16.9609C127.356 16.9935 127.232 17.0163 127.076 17.0293C126.92 17.0488 126.721 17.0586 126.48 17.0586C126.24 17.0586 126.041 17.0488 125.885 17.0293C125.729 17.0163 125.602 16.9935 125.504 16.9609C125.413 16.9284 125.348 16.8893 125.309 16.8438C125.27 16.7917 125.25 16.7331 125.25 16.668V3.82617C125.25 3.76107 125.27 3.70247 125.309 3.65039C125.348 3.59831 125.413 3.55599 125.504 3.52344C125.602 3.48438 125.729 3.45508 125.885 3.43555C126.041 3.41602 126.24 3.40625 126.48 3.40625C126.721 3.40625 126.92 3.41602 127.076 3.43555C127.232 3.45508 127.356 3.48438 127.447 3.52344C127.545 3.55599 127.613 3.59831 127.652 3.65039C127.691 3.70247 127.711 3.76107 127.711 3.82617V16.668ZM137.594 16.6973C137.594 16.7884 137.561 16.86 137.496 16.9121C137.431 16.9642 137.327 17 137.184 17.0195C137.047 17.0456 136.842 17.0586 136.568 17.0586C136.275 17.0586 136.061 17.0456 135.924 17.0195C135.794 17 135.699 16.9642 135.641 16.9121C135.589 16.86 135.562 16.7884 135.562 16.6973V16.0039C135.204 16.388 134.794 16.6875 134.332 16.9023C133.876 17.1172 133.368 17.2246 132.809 17.2246C132.346 17.2246 131.92 17.1628 131.529 17.0391C131.145 16.9219 130.81 16.7461 130.523 16.5117C130.243 16.2708 130.025 15.9746 129.869 15.623C129.713 15.2715 129.635 14.8613 129.635 14.3926C129.635 13.8848 129.732 13.4453 129.928 13.0742C130.13 12.6966 130.426 12.3874 130.816 12.1465C131.214 11.8991 131.705 11.7168 132.291 11.5996C132.877 11.4824 133.557 11.4238 134.332 11.4238H135.182V10.8965C135.182 10.623 135.152 10.3854 135.094 10.1836C135.042 9.97526 134.951 9.80273 134.82 9.66602C134.697 9.5293 134.527 9.42839 134.312 9.36328C134.104 9.29818 133.844 9.26562 133.531 9.26562C133.121 9.26562 132.753 9.3112 132.428 9.40234C132.109 9.49349 131.826 9.5944 131.578 9.70508C131.331 9.81576 131.122 9.91667 130.953 10.0078C130.79 10.099 130.657 10.1445 130.553 10.1445C130.481 10.1445 130.416 10.1217 130.357 10.0762C130.305 10.0306 130.26 9.96549 130.221 9.88086C130.188 9.79622 130.162 9.69206 130.143 9.56836C130.123 9.44466 130.113 9.30794 130.113 9.1582C130.113 8.95638 130.13 8.79688 130.162 8.67969C130.195 8.5625 130.257 8.45833 130.348 8.36719C130.439 8.26953 130.598 8.16536 130.826 8.05469C131.054 7.9375 131.321 7.83008 131.627 7.73242C131.933 7.63477 132.265 7.55664 132.623 7.49805C132.988 7.43294 133.362 7.40039 133.746 7.40039C134.43 7.40039 135.012 7.46875 135.494 7.60547C135.982 7.73568 136.383 7.94076 136.695 8.2207C137.008 8.49414 137.236 8.84896 137.379 9.28516C137.522 9.72135 137.594 10.2389 137.594 10.8379V16.6973ZM135.182 12.9668H134.244C133.847 12.9668 133.508 12.9961 133.229 13.0547C132.949 13.1133 132.721 13.2012 132.545 13.3184C132.369 13.4355 132.239 13.5788 132.154 13.748C132.076 13.9108 132.037 14.0996 132.037 14.3145C132.037 14.679 132.151 14.9655 132.379 15.1738C132.613 15.3822 132.936 15.4863 133.346 15.4863C133.691 15.4863 134.007 15.3984 134.293 15.2227C134.586 15.0469 134.882 14.7897 135.182 14.4512V12.9668ZM145.65 8.76758C145.65 9.00195 145.644 9.19401 145.631 9.34375C145.618 9.49349 145.598 9.61068 145.572 9.69531C145.546 9.77995 145.51 9.83854 145.465 9.87109C145.426 9.90365 145.374 9.91992 145.309 9.91992C145.257 9.91992 145.198 9.91016 145.133 9.89062C145.068 9.86458 144.993 9.83854 144.908 9.8125C144.83 9.78646 144.742 9.76367 144.645 9.74414C144.547 9.7181 144.439 9.70508 144.322 9.70508C144.186 9.70508 144.049 9.73438 143.912 9.79297C143.775 9.84505 143.632 9.92969 143.482 10.0469C143.339 10.1641 143.186 10.3203 143.023 10.5156C142.867 10.7109 142.698 10.9518 142.516 11.2383V16.668C142.516 16.7331 142.496 16.7917 142.457 16.8438C142.418 16.8893 142.35 16.9284 142.252 16.9609C142.161 16.9935 142.037 17.0163 141.881 17.0293C141.725 17.0488 141.526 17.0586 141.285 17.0586C141.044 17.0586 140.846 17.0488 140.689 17.0293C140.533 17.0163 140.406 16.9935 140.309 16.9609C140.217 16.9284 140.152 16.8893 140.113 16.8438C140.074 16.7917 140.055 16.7331 140.055 16.668V7.95703C140.055 7.89193 140.071 7.83659 140.104 7.79102C140.136 7.73893 140.195 7.69661 140.279 7.66406C140.364 7.63151 140.471 7.60872 140.602 7.5957C140.738 7.57617 140.908 7.56641 141.109 7.56641C141.318 7.56641 141.49 7.57617 141.627 7.5957C141.764 7.60872 141.868 7.63151 141.939 7.66406C142.018 7.69661 142.073 7.73893 142.105 7.79102C142.138 7.83659 142.154 7.89193 142.154 7.95703V9.04102C142.382 8.71549 142.597 8.44857 142.799 8.24023C143.001 8.02539 143.193 7.85612 143.375 7.73242C143.557 7.60872 143.74 7.52409 143.922 7.47852C144.104 7.42643 144.286 7.40039 144.469 7.40039C144.553 7.40039 144.645 7.4069 144.742 7.41992C144.84 7.42643 144.941 7.44271 145.045 7.46875C145.149 7.48828 145.24 7.51432 145.318 7.54688C145.396 7.57292 145.452 7.60221 145.484 7.63477C145.523 7.66732 145.549 7.70312 145.562 7.74219C145.582 7.78125 145.598 7.83659 145.611 7.9082C145.624 7.97331 145.634 8.07422 145.641 8.21094C145.647 8.34766 145.65 8.5332 145.65 8.76758Z" fill="white"/>
</svg>
